/* XPM */
static char *subdownloader[] = {
/* columns rows colors chars-per-pixel */
"32 32 256 2",
"   c #1D1C0C",
".  c #1C1D08",
"X  c #151D14",
"o  c #1C1C14",
"O  c #1E161B",
"+  c #1C1B1A",
"@  c #171A19",
"#  c #241B06",
"$  c #2B1A03",
"%  c #2B160C",
"&  c #241A0C",
"*  c #2B1A0A",
"=  c #281708",
"-  c #351B05",
";  c #341A07",
":  c #251614",
">  c #221A14",
",  c #23161B",
"<  c #28141F",
"1  c #22191A",
"2  c #2A1613",
"3  c #17200C",
"4  c #162011",
"5  c #282309",
"6  c #342304",
"7  c #3E2A00",
"8  c #382909",
"9  c #272512",
"0  c #35281A",
"q  c #2E321F",
"w  c #3B310C",
"e  c #1B1B22",
"r  c #1D182A",
"t  c #181822",
"y  c #231622",
"u  c #251621",
"i  c #2F2929",
"p  c #312F26",
"a  c #332D2E",
"s  c #323226",
"d  c #34322E",
"f  c #342D34",
"g  c #352D3A",
"h  c #382C3D",
"j  c #3A3334",
"k  c #393239",
"l  c #343230",
"z  c #442B07",
"x  c #4B3306",
"c  c #453409",
"v  c #4E3809",
"b  c #483603",
"n  c #5C3C0A",
"m  c #513908",
"M  c #4B3D12",
"N  c #643F0E",
"B  c #463C3C",
"V  c #5A450B",
"C  c #4D4114",
"Z  c #5B4E1C",
"A  c #5C4114",
"S  c #624A0C",
"D  c #62460B",
"F  c #684D15",
"G  c #6F5D14",
"H  c #6C5B1D",
"J  c #735B1C",
"K  c #7D5C17",
"L  c #7B641A",
"P  c #756018",
"I  c #4A462A",
"U  c #44403A",
"Y  c #544C3C",
"T  c #595439",
"R  c #5A4821",
"E  c #775A28",
"W  c #6A513C",
"Q  c #786939",
"!  c #7B6826",
"~  c #4C4548",
"^  c #554D44",
"/  c #53534B",
"(  c #5C564A",
")  c #57584A",
"_  c #564E53",
"`  c #5D5B54",
"'  c #575558",
"]  c #625A47",
"[  c #635D55",
"{  c #645B5B",
"}  c #63555A",
"|  c #6E614C",
" . c #7C704C",
".. c #65635B",
"X. c #6F6A5B",
"o. c #696258",
"O. c #77695B",
"+. c #77765E",
"@. c #555360",
"#. c #6C6A68",
"$. c #777565",
"%. c #776E72",
"&. c #7D7976",
"*. c #757978",
"=. c #787577",
"-. c #6F666C",
";. c #865D1A",
":. c #8A6A1C",
">. c #86671C",
",. c #8E701D",
"<. c #8D7016",
"1. c #96731C",
"2. c #987D18",
"3. c #926E17",
"4. c #A47C1A",
"5. c #845F20",
"6. c #8D7422",
"7. c #83742D",
"8. c #937223",
"9. c #987723",
"0. c #8B7738",
"q. c #826836",
"w. c #887756",
"e. c #927E5F",
"r. c #88784D",
"t. c #857A6A",
"y. c #847E7D",
"u. c #8A7E7A",
"i. c #7E8274",
"p. c #A4831A",
"a. c #AA851A",
"s. c #B08718",
"d. c #B99715",
"f. c #BAA012",
"g. c #A48526",
"h. c #B48A20",
"j. c #A89122",
"k. c #BC972A",
"l. c #A48732",
"z. c #AEA036",
"x. c #C89D14",
"c. c #C6A51C",
"v. c #CAA516",
"b. c #D9B518",
"n. c #CAA80E",
"m. c #FDBE03",
"M. c #FBBE0C",
"N. c #E5B819",
"B. c #F8BF1D",
"V. c #F6BE15",
"C. c #CAAC24",
"Z. c #CAA524",
"A. c #D2AA26",
"S. c #DDB621",
"D. c #DCBD2A",
"F. c #CEA137",
"G. c #CAB137",
"H. c #E3B927",
"J. c #EDC60C",
"K. c #EEC80B",
"L. c #ECC806",
"P. c #F4C402",
"I. c #FBC203",
"U. c #F4C902",
"Y. c #F4C40B",
"T. c #FAC20B",
"R. c #F2C808",
"E. c #EDC413",
"W. c #ECC812",
"Q. c #ECC41B",
"!. c #E9C719",
"~. c #F2C412",
"^. c #F9C213",
"/. c #F2C31A",
"(. c #F4C819",
"). c #DDC236",
"_. c #E3C224",
"`. c #EBC329",
"'. c #E9C724",
"]. c #F5C724",
"[. c #E7C933",
"{. c #FACB39",
"}. c #FBD032",
"|. c #948649",
" X c #8E8743",
".X c #AD9C56",
"XX c #BCA65C",
"oX c #B5A24A",
"OX c #84826D",
"+X c #9B8967",
"@X c #888576",
"#X c #928879",
"$X c #9F927C",
"%X c #A18C6D",
"&X c #A2976A",
"*X c #B49B6F",
"=X c #A99C76",
"-X c #B9AC78",
";X c #B7AA6A",
":X c #D2B65F",
">X c #C2A849",
",X c #CEBB6C",
"<X c #C5B773",
"1X c #D0BA67",
"2X c #DBC75D",
"3X c #FFCF40",
"4X c #FCD347",
"5X c #FED44B",
"6X c #FBDA4E",
"7X c #F4D247",
"8X c #EFD85C",
"9X c #FDD354",
"0X c #FBDB52",
"qX c #FBD35C",
"wX c #FBDA5C",
"eX c #F5D356",
"rX c #E1C94C",
"tX c #D7C374",
"yX c #E0CE6D",
"uX c #EFDA6B",
"iX c #E9D269",
"pX c #FCD562",
"aX c #FBDA64",
"sX c #FFD669",
"dX c #FEDB6D",
"fX c #F4DD67",
"gX c #EFD37A",
"hX c #EEDA79",
"jX c #F7DA76",
"kX c #F7E17A",
"lX c #7C7B87",
"zX c #827C81",
"xX c #877F85",
"cX c #847E94",
"vX c #898584",
"bX c #8C8983",
"nX c #848688",
"mX c #8C8C8C",
"MX c #888687",
"NX c #908E8C",
"BX c #938B82",
"VX c #8D938C",
"CX c #939387",
"ZX c #898392",
"AX c #8B8C95",
"SX c #928E97",
"DX c #8C9290",
"FX c #949498",
"GX c #B9AB81",
"HX c #AFAC9C",
"JX c #B6B6AE",
"KX c #C3B383",
"LX c #D8C680",
"PX c #EEDA8D",
"IX c #E6CE8A",
"UX c #F6E084",
/* pixels */
"HXMXMX@X@XAXbXMXNXmXAXmXBXBXNXAXmXNXVXVXVXSXSXCXCXSXFXFXVXFXFXJX",
"xXcXnX@XvXvX@Xu.OX@XvXvX@XvX@XnXmXMXMXMXbX#X=X-XGX=X#XNXNXNXNXSX",
"&.lX=.*.u.t.%XGX&X-X%Xt.zXlXi.y.y.y.u.u.+XLXUXUXhXPXKX#XcXvX@XMX",
"$.=.%.=.w.,XhX<X+XhXgX*X&.*.$.y.=.&.t.+XIXkXaXdXaXjXkX<Xt.OXOXzX",
"X.#.-. .1XfXuX+XO.yX0XgX=X$.+.%.=.%.r.tXfXaXaXaXsXsXwXfX;X$.&.=.",
"..#....XpXqXiX| #.;X6X6XgXr.X.#.#.X.&XfX0XwXpXwXsXpX0X0XuXe.%.%.",
"[ `  .8X4X9X>X{ ..|.8X4X9X:X| ..#.Q yXeX5X9X9X6X9X}.(.(.'.>XO.-.",
"' ( z.!.^.{.r.` ` W 2X9X4XeXr.` [ |.uX8XpX9X3X[.'.L.V.].~.).Q ..",
"^ I N.I.^.b.9 U ' Y oXeX3X4XoX( ( r.|. Xq.E H H J G G E G H M ] ",
"B V (.I.Y.p.  > f Y Q 7X{.{.rXT ^ W 0 o 2 2 2 > 2 # * : % $ Q ~ ",
"0 6.R.I.R.V > o o > 8 D.].].`.n M 0.* @ + : , 1 > @ & + . x G.p ",
"* x.U.I.N.* : 1 o O : 2.J.~.J.5.E C.* 4 4 o 4 > > e   + . :.Q.6 ",
"* N.P.T.p.> , o   + : D W.I.P.4.1.`.n O o o + : o e > +   Z.V.m ",
"6 W.P./.S + , > o O o ; b.P.M.x.a.V.9.= 3 o > & & o   & c Q.M.D ",
"w E.P.H.; o 1 o + o O % 9.R.Y.x.s.^.A.=   e + , , @ + & :.Y.~.F ",
"c /.I.p.: + o 1 1 o + & D ~.U.n.s.T./.m # e + : u o + % x.Y.K.F ",
"x M.^.Z , < X 1 < o   & = N.P.v.p.J.^.3.& e X : : u 4 w /.I.W.S ",
"w W.N.5 > > 4 1 1 + @ + : p.~.d.8.J.T.v.# + X , > 1   L V.I.Q.m ",
"& _.g.. &   o > o + 1 + + D '.s.L ~.I.(.v X + O > > & c.m.I./.8 ",
"& A.F > > @ : :   1 , > o - S.8.D Y.U.Y.,.& : y O X x V.I.I.b.: ",
"& l.* 1 y r e + o y u > + & g.F - E.Y.I.n.= : + e > >.T.I.P.d.o ",
"1 w # & &   &   & & % =   $ R s : d.Y.T.K.v % @ y & x.I.I.Y.P & ",
"+ 9 7.6.6.8.6.6.6.,.8.6.6.8.E X o J ~.I.R.:.& 1 1 b E.T.T.H.8 & ",
": & C.~.Y.^.Y.T.~.K.~.^.~./.>.&   6 N.I.~.c.& o o L R.Y.T.s.& > ",
"> * K Q.M.I.P.P.U.U.I.I.Y.H.7 > + # <.V.M.!.c & = f.T.T._.v . 1 ",
"X y ; C.P.P.M.P.I.m.T.I.W.,.& 3 : 1 6 A.I.K.>.: z W.I.V.1.* o 1 ",
"+ + 2 V _.Y.M.m.m.T.I.U.c.- > + O o > v H.M.n.= ;.K.~.k.6 + + 1 ",
"r X   2 G _.P.I.I.T.R.C.x &   t e > o   v F.[.c k._.g.- : e o 1 ",
"1 > & o = V C.'.!._.j.z , O o @ o y : X X * F M ! m % 1 X X o : ",
"0 1 o @ + * - m V 7 & + r > + e + y & o t +   & & > r @   @ O i ",
"~ B j k k j j g g k l f d s l h l d s j k s i g f f i p s p j / ",
"nX/ / _ / / / / ' T ' ' ) ) ( ( ] ) ' } } ( ` ` ( ` { { } [ [ MX"
};
